<?xml version="1.0" encoding="utf-8" ?>
<svg baseProfile="full" height="200mm" version="1.1" viewBox="0,0,200,200" width="200mm" xmlns="http://www.w3.org/2000/svg" xmlns:ev="http://www.w3.org/2001/xml-events" xmlns:xlink="http://www.w3.org/1999/xlink"><defs /><rect fill="#1a1a1a" height="200" width="200" x="0" y="0" /><text alignment-baseline="middle" fill="#e1ed5e" style="dominant-baseline: central; font-size:9.0px; font-family:Arial;" text-anchor="middle" x="100.0" y="100.0">2023</text><line stroke="#e1ed5e" stroke-width="0.3" x1="100.0" x2="100.0" y1="15.0" y2="10.0" /><path d="M 100.0 14.0 a86.0,86.0 0 0,1 42.46469731375804,11.215312516191453" fill="none" id="id1" stroke="none" /><text fill="#e1ed5e" style="font-size:6.75px; font-family:Arial;" text-anchor="middle"><textPath startOffset="22.20632615414155" xlink:href="#id1">January</textPath></text><path d="M 101.44485096284872 79.0497635885617 l 1.2785358141197745 -18.53867855926715 a39.58271391782746,39.58271391782746 0 0,0 0.6793332584594676,0.0527293354152495 l -1.5974592619415833 18.513923961663437" fill="#ffcb12" stroke="none" /><path d="M 103.2404852339499 79.25152402106235 l 1.3456187952051142 -8.615851402935892 a29.72029731944282,29.72029731944282 0 0,0 0.5047791447006824,0.08329288399022217 l -1.4937271460446717 8.591412256006045" fill="#ff3f05" stroke="none" /><path d="M 103.59715602781102 79.31037775812273 l 3.1894074654287863 -18.344390714489016 a39.61958621093293,39.61958621093293 0 0,0 0.6709008645948563,0.12260284471430445 l -3.5047034511265434 18.286772388423973" fill="#ffcb12" stroke="none" /><path d="M 104.66035177308747 79.52364482259891 l 4.086058746151055 -17.95306325266634 a39.41217956221468,39.41217956221468 0 0,0 0.6602033911984221,0.1562488123805944 l -4.394485824312001 17.88006852814488" fill="#ffc812" stroke="none" /><path d="M 105.71112130821622 79.79150937346287 l 8.504008706717949 -30.090970050043556 a52.269548168090836,52.269548168090836 0 0,0 0.863716406166859,0.2521425036234249 l -9.020715330608235 29.940129217501426" fill="#94ff23" stroke="none" /><path d="M 106.40334571778207 80.00007090966166 l 9.08909877105788 -28.38849234884083 a50.80802265012291,50.80802265012291 0 0,0 0.830631759223025,0.27384623150094206 l -9.576413352523323 28.227832393080654" fill="#a5ff21" stroke="none" /><path d="M 108.09893153111575 80.62456947434976 l 4.504633680971305 -10.776633509474753 a32.68022064848414,32.68022064848414 0 0,0 0.5171508628803617,0.2214170104831654 l -4.689468301641982 10.697496971028796" fill="#ff6a09" stroke="none" /><path d="M 108.43124777332544 80.76684994638697 l 5.117667719604242 -11.674294697765466 a33.74675172655976,33.74675172655976 0 0,0 0.5300134363372127,0.23780157936366625 l -5.317863274408235 11.58447278788527" fill="#ff790b" stroke="none" /><path d="M 109.73455568895987 81.39251694778311 l 3.7762994220933583 -7.218349736946922 a29.146472257988997,29.146472257988997 0 0,0 0.4425474788421405,0.23639353680771333 l -3.89999194746381 7.152277473637455" fill="#ff3605" stroke="none" /><path d="M 110.05341064243156 81.56283822128135 l 4.591068314052588 -8.419656995415815 a30.59002253306801,30.59002253306801 0 0,0 0.46012624918761097,0.2560597595047856 l -4.735318652312234 8.33938183835085" fill="#ff4c07" stroke="none" /><line stroke="#e1ed5e" stroke-width="0.3" x1="143.23703022742887" x2="145.7803849466894" y1="26.81831364943548" y2="22.513508569990506" /><path d="M 143.74570117128098 25.957352633546492 a86.0,86.0 0 0,1 28.547481713284135,27.462654790039103" fill="none" id="id2" stroke="none" /><text fill="#e1ed5e" style="font-size:6.75px; font-family:Arial;" text-anchor="middle"><textPath startOffset="19.985693538727396" xlink:href="#id2">February</textPath></text><path d="M 112.19680574252982 82.90503203632743 l 5.369921058069798 -7.526448349919638 a30.245727496195716,30.245727496195716 0 0,0 0.42121450793092535,0.3060302534246668 l -5.498680882354512 7.4328988616782965" fill="#ff4606" stroke="none" /><path d="M 114.94478906791727 85.2469230424477 l 7.048830557244428 -6.958407990850674 a30.90481973545593,30.90481973545593 0 0,0 0.37046893101084216,0.38180079854508153 l -7.1675637519583795 6.836042996755477" fill="#ff5007" stroke="none" /><path d="M 115.9244219780498 86.31012108654704 l 17.39490990827737 -14.95402537580228 a43.93917534823832,43.93917534823832 0 0,0 0.4881211076605953,0.5777814301473047 l -17.649741629425083 14.652384996025868" fill="#faff18" stroke="none" /><path d="M 116.15771136456269 86.58626213691792 l 14.149581897007453 -11.74663776052707 a39.3900561863514,39.3900561863514 0 0,0 0.4286041540845845,0.525418014182066 l -14.349684543168447 11.501335576736903" fill="#ffc812" stroke="none" /><path d="M 116.60985879189232 87.15038557335679 l 4.487607435799657 -3.4716746223218853 a26.673724101603653,26.673724101603653 0 0,0 0.277818344040222,0.365576375256692 l -4.546701720063993 3.3939134711841596" fill="#ff1001" stroke="none" /><path d="M 117.2510076193507 88.02491185347247 l 6.057944850526993 -4.205228191452955 a28.374458621093293,28.374458621093293 0 0,0 0.2750640750071182,0.4036225889488117 l -6.129433391202844 4.100327579233737" fill="#ff2a04" stroke="none" /><path d="M 117.45458315368197 88.32363383020206 l 6.363118039242454 -4.256652568192024 a28.655609856022476,28.655609856022476 0 0,0 0.2707318767288318,0.41234322210444374 l -6.4354465513292105 4.146491282109906" fill="#ff2f04" stroke="none" /><path d="M 117.65298651832404 88.62581576622439 l 52.95895955497212 -34.12255270132683 a84.0,84.0 0 0,0 0.7726896150161773,1.2222094091431752 l -53.538476766234254 33.20589564446945" fill="#4dd2ff" stroke="none" /><line stroke="#e1ed5e" stroke-width="0.3" x1="172.23445277983987" x2="176.4835382374775" y1="55.19839476539836" y2="52.563006222186495" /><path d="M 173.08426987136738 54.67131705675599 a86.0,86.0 0 0,1 12.851231095245387,41.99856678651699" fill="none" id="id3" stroke="none" /><text fill="#e1ed5e" style="font-size:6.75px; font-family:Arial;" text-anchor="middle"><textPath startOffset="22.20632615414155" xlink:href="#id3">March</textPath></text><path d="M 117.84615892207809 88.93136811851018 l 9.203394508487987 -5.708174309069549 a31.829853388739316,31.829853388739316 0 0,0 0.2847774568861817,0.46809926193030893 l -9.300287763660393 5.5489072739321585" fill="#ff5e08" stroke="none" /><path d="M 118.21658344932153 89.55222093294921 l 9.191719540118415 -5.271737989102871 a31.596175231183423,31.596175231183423 0 0,0 0.2665248098375923,0.4741178970636058 l -9.281101991248441 5.11273658210447" fill="#ff5a08" stroke="none" /><path d="M 118.3937258080291 89.86733742301442 l 20.015530088129527 -11.02607567380338 a43.85160365211284,43.85160365211284 0 0,0 0.358522151588084,0.664287096814519 l -20.202360338936074 10.679907593656402" fill="#fbff18" stroke="none" /><path d="M 118.73160827565052 90.50648371742162 l 12.489748758067922 -6.330029512423875 a35.00225330680089,35.00225330680089 0 0,0 0.26775054846695345,0.5397687673494472 l -12.596859319488283 6.114101156575477" fill="#ff8b0c" stroke="none" /><path d="M 118.89224826269711 90.83032412892265 l 14.03152466660578 -6.810440524638386 a36.596979983612314,36.596979983612314 0 0,0 0.27019342269506424,0.5690962561095206 l -14.1466762831426 6.567901852888325" fill="#ffa20e" stroke="none" /><path d="M 119.196687751892 91.48605970444005 l 17.49341146534933 -7.75851869377668 a40.1367201217371,40.1367201217371 0 0,0 0.2746675979970396,0.6339706856127766 l -17.62436977318905 7.456248863577301" fill="#ffd213" stroke="none" /><path d="M 119.47837535516314 92.15188598940014 l 16.164053293165114 -6.5127265906468805 a38.426767528971084,38.426767528971084 0 0,0 0.24191745354887662,0.615653532083842 l -16.273764296595694 6.233524053667255" fill="#ffbb11" stroke="none" /><path d="M 119.7369772167798 92.82701384747503 l 23.443869402700816 -8.520177570261867 a45.944106285848065,45.944106285848065 0 0,0 0.26373430798598324,0.7456124035202342 l -23.58705679149661 8.115367540315017" fill="#e1ff1b" stroke="none" /><path d="M 119.85752413597 93.16781622104841 l 18.30132462654334 -6.296757460327202 a40.35426665105935,40.35426665105935 0 0,0 0.22033949628886068,0.6587870485632485 l -18.407001416603972 5.980797308841639" fill="#ffd513" stroke="none" /><path d="M 119.97218684219823 93.5106431181261 l 14.789774904653695 -4.80548916937314 a36.55088961723048,36.55088961723048 0 0,0 0.18927184806035355,0.6000434815479302 l -14.870302236482255 4.550195521398791" fill="#ffa10e" stroke="none" /><path d="M 120.08093135843002 93.85539295169968 l 4.958236519277576 -1.5171813756886903 a26.185166217956223,26.185166217956223 0 0,0 0.1281752700169414,0.43214329115719696 l -4.98361768640622 1.4316086977849634" fill="#ff0901" stroke="none" /><path d="M 120.28053869075195 94.5502522615342 l 18.69029804279837 -5.022421299708362 a40.35334484373171,40.35334484373171 0 0,0 0.1744872253863546,0.6723704572324568 l -18.773981600055027 4.699954416927055" fill="#ffd513" stroke="none" /><path d="M 120.37134235888165 94.90015583598534 l 8.099772580771536 -2.027729797976911 a29.34973077373288,29.34973077373288 0 0,0 0.11847116622800903,0.4911394686052447 l -8.133476547260365 1.8880050977122604" fill="#ff3905" stroke="none" /><path d="M 120.45610955862082 95.25157060432595 l 12.104135996585311 -2.8097050913183126 a33.4259627765422,33.4259627765422 0 0,0 0.12527670906546798,0.5615909224463995 l -12.150707092652816 2.6009359993219494" fill="#ff750a" stroke="none" /><path d="M 120.6074358757038 95.95851677861258 l 14.735534812794752 -2.889899406373693 a36.01624136720122,36.01624136720122 0 0,0 0.11407591533462709,0.6093981011983959 l -14.783096452039238 2.6358232277127347" fill="#ff9a0e" stroke="none" /><path d="M 120.87857604477298 97.74499172005257 l 15.932958761780627 -1.720852698710321 a37.02562039096336,37.02562039096336 0 0,0 0.06298388494113788,0.6342391259751593 l -15.960219772403994 1.4463380420307268" fill="#ffa80f" stroke="none" /><path d="M 120.91429891909075 98.10471618934814 l 4.59022714190509 -0.41597297728810095 a25.60903663818331,25.60903663818331 0 0,0 0.03600571550608729,0.43936092830732354 l -4.596707341230672 0.33689813177300865" fill="#ff0000" stroke="none" /><path d="M 120.94382443527127 98.46500227214037 l 20.409380595064185 -1.4958277050721585 a41.46412267353389,41.46412267353389 0 0,0 0.04604375406034405,0.7122764958655978 l -20.432104940128944 1.1442921449535255" fill="#ffe415" stroke="none" /><path d="M 120.96714384426684 98.82574320788733 l 4.601825436965978 -0.2577234560706138 a25.60903663818331,25.60903663818331 0 0,0 0.020860867309309812,0.4403399381015555 l -4.605579912508784 0.17847241134605854" fill="#ff0000" stroke="none" /><line stroke="#e1ed5e" stroke-width="0.3" x1="184.98032266829074" x2="189.97916517819016" y1="98.17113171792111" y2="98.06355123074" /><path d="M 185.9800911702706 98.14961562048488 a86.0,86.0 0 0,1 -9.607161424134198,41.387399972396054" fill="none" id="id4" stroke="none" /><text fill="#e1ed5e" style="font-size:6.75px; font-family:Arial;" text-anchor="middle"><textPath startOffset="21.466115282336823" xlink:href="#id4">April</textPath></text><path d="M 120.99513854157772 99.54816195383933 l 22.353260797991073 -0.4810663032436052 a43.358436731827226,43.358436731827226 0 0,0 0.009635881695924678,0.7463096564635691 l -22.358229686804712 0.09622038871957346" fill="#fffc17" stroke="none" /><path d="M 120.99824983174949 100.27111621757518 l 17.803224664940952 0.2298640586941664 a38.80470853330212,38.80470853330212 0 0,0 -0.01437240907136096,0.6678293742491248 l -17.796630193184583 -0.536283248733406" fill="#ffc011" stroke="none" /><path d="M 120.9764740272857 100.99374915477107 l 16.15499108079982 0.7653339980301849 a37.173109563385225,37.173109563385225 0 0,0 -0.03578115205398561,0.6388965063422805 l -16.139423577858306 -1.0433022207078888" fill="#ffaa0f" stroke="none" /><path d="M 120.8583938346157 102.4346265915055 l 23.791643617251946 2.777000408826114 a44.95316340863865,44.95316340863865 0 0,0 -0.09632497656993103,0.7678048382522008 l -23.740317131435166 -3.1861230013657096" fill="#edff1a" stroke="none" /><path d="M 120.32669344350535 105.2749913415812 l 12.183702986556195 3.1617994309357678 a33.587279058878615,33.587279058878615 0 0,0 -0.15004225042661642,0.5583630309246459 l -12.127472659787802 -3.371053395035962" fill="#ff770b" stroke="none" /><path d="M 120.23288151984713 105.62410040840565 l 27.20799157324052 7.562960143312098 a49.23956748214913,49.23956748214913 0 0,0 -0.23402244720296522,0.8146628395743041 l -27.073776489151452 -8.030180458390983" fill="#b8ff1f" stroke="none" /><path d="M 120.13307415673323 105.97154293290107 l 18.80184739045853 5.576696238037152 a40.61145089546997,40.61145089546997 0 0,0 -0.2045525825915508,0.6684896752424083 l -18.703068035360847 -5.8995128858316175" fill="#ffd814" stroke="none" /><path d="M 120.02730092923936 106.31721596034902 l 10.487783861896826 3.308163982513336 a31.997161418705375,31.997161418705375 0 0,0 -0.17020623218825556,0.5238409187304266 l -10.429285378692324 -3.4882038012215575" fill="#ff6008" stroke="none" /><path d="M 119.79798401119884 107.00284435728193 l 19.32754145539018 6.83644175813312 a41.500994966639354,41.500994966639354 0 0,0 -0.2440174296440076,0.6714311650644373 l -19.206999764740942 -7.168120720203688" fill="#ffe415" stroke="none" /><path d="M 119.54520255179757 107.68017299344265 l 14.001713638885771 5.501891457318157 a36.04389558703032,36.04389558703032 0 0,0 -0.23187790789463358,0.5755019512256614 l -13.904933116733746 -5.742092776386632" fill="#ff9a0e" stroke="none" /><path d="M 119.41010516605496 108.01547362559984 l 22.676458020947827 9.36432593403984 a45.53390202504975,45.53390202504975 0 0,0 -0.3054002582244664,0.7218759966647679 l -22.511906781531053 -9.753276456370772" fill="#e6ff1a" stroke="none" /><path d="M 118.81262510543309 109.33194174019688 l 13.563620830946613 6.728190173946522 a36.140685356432165,36.140685356432165 0 0,0 -0.2812456607516215,0.5549243704456982 l -13.445796500408722 -6.960668756094915" fill="#ff9b0e" stroke="none" /><line stroke="#e1ed5e" stroke-width="0.3" x1="174.80103733775053" x2="179.2010983576182" y1="140.37084112569926" y2="142.7455964860345" /><path d="M 175.68104954172406 140.8457921977663 a86.0,86.0 0 0,1 -30.038265399797805,32.042727171017184" fill="none" id="id5" stroke="none" /><text fill="#e1ed5e" style="font-size:6.75px; font-family:Arial;" text-anchor="middle"><textPath startOffset="22.206326154141568" xlink:href="#id5">May</textPath></text><path d="M 118.48025628344425 109.97397251340804 l 8.752866321770606 4.72400635401818 a30.946301065199577,30.946301065199577 0 0,0 -0.25703642599936594,0.466595774465695 l -8.67025348631973 -4.87397264688168" fill="#ff5107" stroke="none" /><path d="M 117.75023020441432 111.22182372390056 l 8.921345070842097 5.640138781985017 a31.554693901439776,31.554693901439776 0 0,0 -0.2942026477870361,0.45660904274941927 l -8.82293755967801 -5.792869424655889" fill="#ff5a08" stroke="none" /><path d="M 117.35343817320211 111.8261652097733 l 21.335176741519273 14.539673487560075 a46.81844053611144,46.81844053611144 0 0,0 -0.4595767076284515,0.6620545241893205 l -21.081739126728685 -14.904769273936415" fill="#d6ff1c" stroke="none" /><path d="M 116.93607887273984 112.41649034213515 l 8.051229114118538 5.902665504155021 a30.983173358305045,30.983173358305045 0 0,0 -0.3190362933698216,0.4274012511348141 l -7.9484315540536254 -6.04037963479915" fill="#ff5107" stroke="none" /><path d="M 116.0416608686014 113.55231037782055 l 17.63211934404391 14.895960956073392 a44.08205548402201,44.08205548402201 0 0,0 -0.49467936039649124,0.5754238535334565 l -17.37309747407664 -15.197261908768377" fill="#f8ff18" stroke="none" /><path d="M 115.56566222782051 114.09645910891815 l 22.88592369428984 20.725779784028465 a51.875936439189985,51.875936439189985 0 0,0 -0.6051046175888192,0.6567215527792557 l -22.525772668705297 -21.116652591609054" fill="#99ff23" stroke="none" /><path d="M 115.07121518719521 114.62390073753431 l 10.846273542406006 10.524355580235653 a36.11303113660307,36.11303113660307 0 0,0 -0.43672584832389033,0.4424009786220658 l -10.663507069026581 -10.709497052838383" fill="#ff9b0e" stroke="none" /><path d="M 114.81725581225074 114.88116024355365 l 15.752982080623589 15.820922148200403 a43.326173475359944,43.326173475359944 0 0,0 -0.5330151895587544,0.521667547809693 l -15.47831693868904 -16.08973979893267" fill="#fffc17" stroke="none" /><path d="M 114.29624159901734 115.38237550388516 l 10.97884584344529 11.812945954603364 a37.12701919700339,37.12701919700339 0 0,0 -0.47186753098250456,0.43103980168134387 l -10.773878762995922 -12.000178522871291" fill="#ffa90f" stroke="none" /><path d="M 114.0293411484842 115.62618273729858 l 11.032525752447668 12.28826511787592 a37.51417827461079,37.51417827461079 0 0,0 -0.48421451884565747,0.42726301422455565 l -10.819368880695423 -12.476351273872764" fill="#ffae10" stroke="none" /><path d="M 113.48314897796784 116.09983520530334 l 15.47334573100746 18.476271140441764 a45.09973077373289,45.09973077373289 0 0,0 -0.5994610501686237,0.4933156331882651 l -15.153014552294144 -18.739881892487205" fill="#ebff1a" stroke="none" /><path d="M 113.20401910651253 116.32954008644616 l 28.28728867903593 34.98316767758712 a65.98880662530726,65.98880662530726 0 0,0 -0.8894112990388972,0.7066021269193073 l -27.680919887279682 -35.46490371851156" fill="#35ff68" stroke="none" /><path d="M 112.63410532772338 116.77436683061366 l 9.932554127042271 13.187503362531785 a37.50956923797261,37.50956923797261 0 0,0 -0.5190878368419201,0.38400877205813877 l -9.704081319781787 -13.356522083329693" fill="#ffae10" stroke="none" /><path d="M 112.34349029814194 116.9893568818739 l 7.688493239961111 10.582303091147306 a34.080445979164224,34.080445979164224 0 0,0 -0.4775687574471616,0.3407326282016016 l -7.505197154665065 -10.713079981193127" fill="#ff7e0b" stroke="none" /><path d="M 111.45004920935366 117.60387380957326 l 12.507366026634353 19.22944514886006 a43.93917534823832,43.93917534823832 0 0,0 -0.6375745872218628,0.4069302673625213 l -12.17450963736556 -19.44188984504639" fill="#faff18" stroke="none" /><line stroke="#e1ed5e" stroke-width="0.3" x1="143.8653032363475" x2="146.44561519142675" y1="172.8068346515853" y2="177.08958963109032" /><path d="M 144.38136562736335 173.6633856474863 a86.0,86.0 0 0,1 -40.68145358897372,12.25698825130547" fill="none" id="id6" stroke="none" /><text fill="#e1ed5e" style="font-size:6.75px; font-family:Arial;" text-anchor="middle"><textPath startOffset="21.466115282336833" xlink:href="#id6">June</textPath></text><path d="M 109.89434966115114 118.52300852407294 l 14.260840942463027 26.69742705524704 a51.267543602949786,51.267543602949786 0 0,0 -0.7819743152925895,0.40909200337254115 l -13.799175724643941 -26.9389484775643" fill="#a0ff22" stroke="none" /><path d="M 106.91757812671514 119.82793768551818 l 1.8431624968904756 5.283078913339666 a26.595370478754536,26.595370478754536 0 0,0 -0.43354287041073475,0.14708128046382796 l -1.7519498935425137 -5.314023180701617" fill="#ff0f01" stroke="none" /><path d="M 104.13013068566511 120.58985236759428 l 3.079287268641951 15.35110510638485 a36.6568974599087,36.6568974599087 0 0,0 -0.6197326546472294,0.11877323823929095 l -2.814586999423017 -15.40183554297261" fill="#ffa30f" stroke="none" /><path d="M 100.90346689309514 120.98055641714683 l 0.7909829911674447 18.368424341858546 a39.385447149713215,39.385447149713215 0 0,0 -0.6775790712088076,0.023337193236300548 l -0.47468356828398495 -18.379318333520942" fill="#ffc812" stroke="none" /><line stroke="#e1ed5e" stroke-width="0.3" x1="102.19456741930631" x2="102.32365962044197" y1="184.97166512339345" y2="189.96999836594603" /><path d="M 102.22038585953345 185.97133177190398 a86.0,86.0 0 0,1 -42.740103519485714,-10.115201625700543" fill="none" id="id7" stroke="none" /><text fill="#e1ed5e" style="font-size:6.75px; font-family:Arial;" text-anchor="middle"><textPath startOffset="22.20632615414155" xlink:href="#id7">July</textPath></text><path d="M 99.45781275523022 120.99299961872073 l -0.5116919888746756 19.812250898505905 a40.818857544188226,40.818857544188226 0 0,0 -0.7022391666003412,-0.024186536782804597 l 0.8526515071496599 -19.800507563297007" fill="#ffdb14" stroke="none" /><path d="M 98.73552117531835 120.96189622390904 l -1.2266613905594244 20.3349777543774 a41.37194194077023,41.37194194077023 0 0,0 -0.71048871060637,-0.04899946126871856 l 1.5765128619447244 -20.3108499485924" fill="#ffe215" stroke="none" /><path d="M 98.01472825383883 120.90594882070398 l -1.7232858237886548 18.14710016663151 a39.22873990401499,39.22873990401499 0 0,0 -0.6716845783676769,-0.06962285290034945 l 2.035402998761925 -18.1147479452754" fill="#ffc612" stroke="none" /><line stroke="#e1ed5e" stroke-width="0.3" x1="58.666819895761336" x2="56.23545636021788" y1="174.27360380694188" y2="178.64263932499728" /><path d="M 58.180547188652646 175.14741091055294 a86.0,86.0 0 0,1 -31.652253787137756,-30.449443065178592" fill="none" id="id8" stroke="none" /><text fill="#e1ed5e" style="font-size:6.75px; font-family:Arial;" text-anchor="middle"><textPath startOffset="22.20632615414155" xlink:href="#id8">August</textPath></text><line stroke="#e1ed5e" stroke-width="0.3" x1="26.63291911575756" x2="22.317208475507996" y1="142.92168965132927" y2="145.44649492493687" /><path d="M 25.769776987707644 143.4266507060508 a86.0,86.0 0 0,1 -11.730757126820373,-40.83630448921669" fill="none" id="id9" stroke="none" /><text fill="#e1ed5e" style="font-size:6.75px; font-family:Arial;" text-anchor="middle"><textPath startOffset="21.46611528233685" xlink:href="#id9">September</textPath></text><line stroke="#e1ed5e" stroke-width="0.3" x1="15.007084014347285" x2="10.007500721073583" y1="101.09737516637583" y2="101.16192664675087" /><path d="M 14.007167355692545 101.11028546245083 a86.0,86.0 0 0,1 10.666146001902534,-42.60595125391555" fill="none" id="id10" stroke="none" /><text fill="#e1ed5e" style="font-size:6.75px; font-family:Arial;" text-anchor="middle"><textPath startOffset="22.20632615414155" xlink:href="#id10">October</textPath></text><line stroke="#e1ed5e" stroke-width="0.3" x1="26.266209847984243" x2="21.928928074336255" y1="57.711370442889674" y2="55.22380399835377" /><path d="M 25.398753493254645 57.213857153982495 a86.0,86.0 0 0,1 29.58750427330803,-30.492523968695096" fill="none" id="id11" stroke="none" /><text fill="#e1ed5e" style="font-size:6.75px; font-family:Arial;" text-anchor="middle"><textPath startOffset="21.46611528233685" xlink:href="#id11">November</textPath></text><line stroke="#e1ed5e" stroke-width="0.3" x1="56.762969772571076" x2="54.21961505331055" y1="26.818313649435495" y2="22.513508569990535" /><path d="M 56.25429882871897 25.957352633546506 a86.0,86.0 0 0,1 42.265352541879196,-11.944610805530505" fill="none" id="id12" stroke="none" /><text fill="#e1ed5e" style="font-size:6.75px; font-family:Arial;" text-anchor="middle"><textPath startOffset="22.20632615414155" xlink:href="#id12">December</textPath></text></svg>